# Blender 3.6.2
# www.blender.org
mtllib field_hop.mtl
g Cube_Maillage
v -4.284561 0.071100 4.284561
v -4.284561 -0.071100 4.284561
v -4.284561 0.071100 -4.284561
v -4.284561 -0.071100 -4.284561
v 4.284561 0.071100 4.284561
v 4.284561 -0.071100 4.284561
v 4.284561 0.071100 -4.284561
v 4.284561 -0.071100 -4.284561
vn -1.0000 -0.0000 -0.0000
vn -0.0000 -0.0000 -1.0000
vn 1.0000 -0.0000 -0.0000
vn -0.0000 -0.0000 1.0000
vn -0.0000 1.0000 -0.0000
vn -0.0000 -1.0000 -0.0000
vt 0.625000 0.000000
vt 0.375000 0.000000
vt 0.375000 0.250000
vt 0.625000 0.250000
vt 0.375000 0.500000
vt 0.625000 0.500000
vt 0.375000 0.750000
vt 0.625000 0.750000
vt 0.375000 1.000000
vt 0.125000 0.500000
vt 0.125000 0.750000
vt 0.875000 0.500000
vt 0.625000 1.000000
vt 0.875000 0.750000
s 0
g off
g Cube_Material.002
usemtl Material.002
f 2/1/1 1/2/1 3/3/1
f 4/4/2 3/3/2 7/5/2
f 8/6/3 7/5/3 5/7/3
f 6/8/4 5/7/4 1/9/4
f 7/5/5 3/10/5 1/11/5
f 4/12/6 8/6/6 6/8/6
f 2/1/1 3/3/1 4/4/1
f 4/4/2 7/5/2 8/6/2
f 8/6/3 5/7/3 6/8/3
f 6/8/4 1/9/4 2/13/4
f 7/5/5 1/11/5 5/7/5
f 4/12/6 6/8/6 2/14/6
g Cube.001_Maillage
v -4.046020 -0.293098 4.070015
v -4.046020 0.715570 4.070015
v -4.046020 -0.293098 2.073593
v -4.046020 0.715570 2.073593
v 4.046020 -0.293098 4.070015
v 4.046020 0.715570 4.070015
v 4.046020 -0.293098 2.073593
v 4.046020 0.715570 2.073593
v -4.046020 -0.293098 1.075382
v -4.046020 0.715570 1.075382
v -4.046020 -0.293098 -0.921041
v -4.046020 0.715570 -0.921041
v 4.046020 -0.293098 1.075382
v 4.046020 0.715570 1.075382
v 4.046020 -0.293098 -0.921041
v 4.046020 0.715570 -0.921041
v -4.046020 -0.293098 -1.919252
v -4.046020 0.715570 -1.919252
v -4.046020 -0.293098 -3.915674
v -4.046020 0.715570 -3.915674
v 4.046020 -0.293098 -1.919252
v 4.046020 0.715570 -1.919252
v 4.046020 -0.293098 -3.915674
v 4.046020 0.715570 -3.915674
vn -1.0000 -0.0000 -0.0000
vn -0.0000 -0.0000 -1.0000
vn 1.0000 -0.0000 -0.0000
vn -0.0000 -0.0000 1.0000
vn -0.0000 -1.0000 -0.0000
vn -0.0000 1.0000 -0.0000
vt 0.625000 0.000000
vt 0.375000 0.250000
vt 0.375000 0.000000
vt 0.625000 0.250000
vt 0.375000 0.500000
vt 0.625000 0.500000
vt 0.375000 0.750000
vt 0.625000 0.750000
vt 0.375000 1.000000
vt 0.125000 0.750000
vt 0.125000 0.500000
vt 0.875000 0.500000
vt 0.625000 1.000000
vt 0.875000 0.750000
s 0
g off
g Cube.001_Matériau
usemtl Matériau
f 10/15/7 11/16/7 9/17/7
f 12/18/8 15/19/8 11/16/8
f 16/20/9 13/21/9 15/19/9
f 14/22/10 9/23/10 13/21/10
f 15/19/11 9/24/11 11/25/11
f 12/26/12 14/22/12 16/20/12
f 18/15/7 19/16/7 17/17/7
f 20/18/8 23/19/8 19/16/8
f 24/20/9 21/21/9 23/19/9
f 22/22/10 17/23/10 21/21/10
f 23/19/11 17/24/11 19/25/11
f 20/26/12 22/22/12 24/20/12
f 26/15/7 27/16/7 25/17/7
f 28/18/8 31/19/8 27/16/8
f 32/20/9 29/21/9 31/19/9
f 30/22/10 25/23/10 29/21/10
f 31/19/11 25/24/11 27/25/11
f 28/26/12 30/22/12 32/20/12
f 10/15/7 12/18/7 11/16/7
f 12/18/8 16/20/8 15/19/8
f 16/20/9 14/22/9 13/21/9
f 14/22/10 10/27/10 9/23/10
f 15/19/11 13/21/11 9/24/11
f 12/26/12 10/28/12 14/22/12
f 18/15/7 20/18/7 19/16/7
f 20/18/8 24/20/8 23/19/8
f 24/20/9 22/22/9 21/21/9
f 22/22/10 18/27/10 17/23/10
f 23/19/11 21/21/11 17/24/11
f 20/26/12 18/28/12 22/22/12
f 26/15/7 28/18/7 27/16/7
f 28/18/8 32/20/8 31/19/8
f 32/20/9 30/22/9 29/21/9
f 30/22/10 26/27/10 25/23/10
f 31/19/11 29/21/11 25/24/11
f 28/26/12 26/28/12 30/22/12
