# Blender 4.0.2
# www.blender.org
mtllib mill.mtl
o Cylinder
v 0.132436 -0.052832 -3.839329
v 0.132436 4.264784 -2.669784
v 3.348439 -0.052832 -1.982569
v 2.335583 4.264784 -1.397796
v 3.348439 -0.052832 1.730952
v 2.335583 4.264784 1.146179
v 0.132436 -0.052832 3.587712
v 0.132436 4.264784 2.418166
v -3.083567 -0.052832 1.730952
v -2.070711 4.264784 1.146179
v -3.083567 -0.052832 -1.982569
v -2.070711 4.264784 -1.397796
v 0.132436 8.210363 -2.669784
v 2.335583 8.210363 -1.397796
v 2.335583 8.210363 1.146179
v 0.132436 8.210363 2.418166
v -2.070711 8.210363 1.146179
v -2.070711 8.210363 -1.397796
v 0.132436 8.713541 -3.256614
v 2.843793 8.713541 -1.691211
v 2.843793 8.713541 1.439594
v 0.132436 8.713541 3.004997
v -2.578921 8.713541 1.439594
v -2.578921 8.713541 -1.691211
v 0.132436 11.300760 -3.256614
v 2.843793 11.300760 -1.691211
v 2.843793 11.300760 1.439594
v 0.132436 11.300760 3.004997
v -2.578921 11.300760 1.439594
v -2.578921 11.300760 -1.691211
v 0.132436 12.345383 -1.958461
v 1.719560 12.345383 -1.042135
v 1.719560 12.345383 0.790518
v 0.132436 12.345383 1.706844
v -1.454687 12.345383 0.790518
v -1.454687 12.345383 -1.042135
v 3.114651 0.280719 -1.125412
v 2.569371 2.445090 -0.810594
v 3.114651 0.280719 0.873795
v 2.569371 2.445090 0.558977
v 2.038652 0.028303 -1.125412
v 1.493372 2.192675 -0.810594
v 2.038652 0.028303 0.873795
v 1.493372 2.192675 0.558977
v 0.132436 5.217849 2.418166
v -2.070711 5.217849 1.146179
v 2.335583 5.217849 -1.397796
v 2.335583 5.217849 1.146179
v -2.070711 5.217849 -1.397796
v 0.132436 5.217849 -2.669784
v 0.132436 7.535977 2.418166
v 2.335583 7.535977 -1.397796
v 0.132436 7.535977 -2.669784
v -2.070711 7.535977 1.146179
v 2.335583 7.535977 1.146179
v -2.070711 7.535977 -1.397796
v -3.083567 -0.052832 -1.054189
v -2.070711 4.264784 -0.761802
v -2.070711 8.210363 -0.761802
v -2.578921 8.713541 -0.908510
v -2.578921 11.300760 -0.908510
v -1.454687 12.345383 -0.583972
v -2.070711 5.217849 -0.761802
v -2.070711 7.535977 -0.761802
v -2.070711 4.264784 0.401601
v -2.070711 8.210363 0.401601
v -2.578921 8.713541 0.523261
v -2.578921 11.300760 0.523261
v -1.454687 12.345383 0.254132
v -3.083567 -0.052832 0.644068
v -2.070711 5.217849 0.401601
v -2.070711 7.535977 0.401601
v -1.979694 5.217849 0.401601
v -1.979694 5.217849 -0.761802
v -1.979694 7.535977 0.401601
v -1.979694 7.535977 -0.761802
vn 0.4868 0.2284 -0.8431
vn 0.9573 0.2014 -0.2072
vn 0.4868 0.2284 0.8431
vn -0.4868 0.2284 0.8431
vn -0.5000 -0.0000 0.8660
vn -0.9736 0.2284 -0.0000
vn -0.4868 0.2284 -0.8431
vn -0.0000 -1.0000 -0.0000
vn -0.7036 -0.7106 -0.0000
vn 1.0000 -0.0000 -0.0000
vn -1.0000 -0.0000 -0.0000
vn 0.5000 -0.0000 -0.8660
vn 0.5000 -0.0000 0.8660
vn -0.5000 -0.0000 -0.8660
vn 0.3518 -0.7106 0.6093
vn 0.3518 -0.7106 -0.6093
vn -0.3518 -0.7106 -0.6093
vn -0.3518 -0.7106 0.6093
vn 0.7036 -0.7106 -0.0000
vn -0.6807 0.7326 -0.0000
vn -0.0000 1.0000 -0.0000
vn 0.3403 0.7326 0.5895
vn 0.3403 0.7326 -0.5895
vn -0.3403 0.7326 -0.5895
vn -0.3403 0.7326 0.5895
vn 0.6807 0.7326 -0.0000
vn 0.2284 -0.9736 -0.0000
vn 0.8189 0.5740 -0.0000
vn 0.9918 0.1274 -0.0000
vn 0.9573 0.2014 0.2072
vn 0.9697 0.2443 -0.0000
vn 0.0319 -0.1360 0.9902
vn 0.0319 -0.1360 -0.9902
vn -0.2284 0.9736 -0.0000
vn -0.0000 -0.0000 1.0000
vn -0.0000 -0.0000 -1.0000
vt 1.000000 0.500000
vt 1.000000 1.000000
vt 0.833333 1.000000
vt 0.833333 0.500000
vt 0.666667 1.000000
vt 0.666667 0.500000
vt 0.500000 1.000000
vt 0.500000 0.500000
vt 0.333333 1.000000
vt 0.333333 0.500000
vt 0.500000 1.000000
vt 0.208333 0.500000
vt 0.208333 1.000000
vt 0.166667 1.000000
vt 0.166667 0.500000
vt -0.000000 1.000000
vt -0.000000 0.500000
vt 0.750000 0.490000
vt 0.957846 0.370000
vt 0.957846 0.130000
vt 0.750000 0.010000
vt 0.542154 0.130000
vt 0.542154 0.200244
vt 0.542154 0.310000
vt 0.542154 0.370000
vt 0.284553 1.000000
vt 0.833333 1.000000
vt 0.166667 1.000000
vt 0.284553 1.000000
vt 0.457846 0.370000
vt 0.250000 0.490000
vt 0.042154 0.370000
vt 0.042154 0.310000
vt 0.042154 0.200244
vt 0.042154 0.130000
vt 0.250000 0.010000
vt 0.457846 0.130000
vt 0.284553 0.500000
s 0
usemtl Material.001
f 1/1/1 2/2/1 4/3/1 3/4/1
f 6/5/2 5/6/2 39/6/2 40/5/2
f 5/6/3 6/5/3 8/7/3 7/8/3
f 7/8/4 8/7/4 10/9/4 9/10/4
f 54/9/5 51/11/5 16/7/5 17/9/5
f 57/12/6 58/13/6 12/14/6 11/15/6
f 11/15/7 12/14/7 2/16/7 1/17/7
f 66/26/9 17/9/9 23/9/9 67/26/9
f 55/5/10 52/27/10 14/3/10 15/5/10
f 72/26/11 54/9/11 17/9/11 66/26/11
f 52/27/12 53/2/12 13/2/12 14/3/12
f 51/11/13 55/5/13 15/5/13 16/7/13
f 53/16/14 56/28/14 18/14/14 13/16/14
f 19/16/14 24/14/14 30/14/14 25/16/14
f 16/7/15 15/5/15 21/5/15 22/7/15
f 14/3/16 13/2/16 19/2/16 20/3/16
f 13/16/17 18/14/17 24/14/17 19/16/17
f 17/9/18 16/7/18 22/7/18 23/9/18
f 15/5/19 14/3/19 20/3/19 21/5/19
f 23/9/5 22/7/5 28/7/5 29/9/5
f 21/5/10 20/3/10 26/3/10 27/5/10
f 67/26/11 23/9/11 29/9/11 68/29/11
f 22/7/13 21/5/13 27/5/13 28/7/13
f 20/3/12 19/2/12 25/2/12 26/3/12
f 5/20/28 3/19/28 37/19/28 39/20/28
f 4/3/29 6/5/29 40/5/29 38/3/29
f 3/4/30 4/3/30 38/3/30 37/4/30
f 2/16/14 12/14/14 49/14/14 50/16/14
f 8/7/13 6/5/13 48/5/13 45/7/13
f 4/3/12 2/2/12 50/2/12 47/27/12
f 65/26/11 10/9/11 46/9/11 71/26/11
f 6/5/10 4/3/10 47/27/10 48/5/10
f 10/9/5 8/7/5 45/7/5 46/9/5
f 50/16/14 49/14/14 56/28/14 53/16/14
f 45/7/13 48/5/13 55/5/13 51/11/13
f 47/27/12 50/2/12 53/2/12 52/27/12
f 71/26/11 46/9/11 54/9/11 72/26/11
f 48/5/10 47/27/10 52/27/10 55/5/10
f 46/9/5 45/7/5 51/11/5 54/9/5
f 49/14/11 63/13/11 64/13/11 56/28/11
f 12/14/11 58/13/11 63/13/11 49/14/11
f 24/14/11 60/13/11 61/13/11 30/14/11
f 56/28/11 64/13/11 59/13/11 18/14/11
f 18/14/9 59/13/9 60/13/9 24/14/9
f 70/38/6 65/26/6 58/13/6 57/12/6
f 9/10/6 10/9/6 65/26/6 70/38/6
f 64/13/35 63/13/35 74/13/35 76/13/35
f 58/13/11 65/26/11 71/26/11 63/13/11
f 60/13/11 67/26/11 68/29/11 61/13/11
f 64/13/11 72/26/11 66/26/11 59/13/11
f 59/13/9 66/26/9 67/26/9 60/13/9
f 63/13/21 71/26/21 73/26/21 74/13/21
f 71/26/36 72/26/36 75/26/36 73/26/36
f 72/26/8 64/13/8 76/13/8 75/26/8
usemtl Material.002
f 74/13/11 73/26/11 75/26/11 76/13/11
usemtl Material.004
f 1/18/8 3/19/8 5/20/8 7/21/8 9/22/8 70/23/8 57/24/8 11/25/8
f 68/29/20 29/9/20 35/9/20 69/26/20
f 32/30/21 31/31/21 36/32/21 62/33/21 69/34/21 35/35/21 34/36/21 33/37/21
f 28/7/22 27/5/22 33/5/22 34/7/22
f 26/3/23 25/2/23 31/2/23 32/3/23
f 25/16/24 30/14/24 36/14/24 31/16/24
f 29/9/25 28/7/25 34/7/25 35/9/25
f 27/5/26 26/3/26 32/3/26 33/5/26
f 38/3/27 40/5/27 44/5/27 42/3/27
f 41/4/31 42/3/31 44/5/31 43/6/31
f 37/4/32 38/3/32 42/3/32 41/4/32
f 40/5/33 39/6/33 43/6/33 44/5/33
f 39/20/34 37/19/34 41/19/34 43/20/34
f 30/14/20 61/13/20 62/13/20 36/14/20
f 61/13/20 68/29/20 69/26/20 62/13/20
o Cylinder.001
v 2.160867 9.655643 -0.853297
v 3.615843 9.655643 -0.853297
v 2.160867 9.025620 -0.489553
v 3.615843 9.025620 -0.489553
v 2.160867 9.025620 0.237935
v 3.615843 9.025620 0.237935
v 2.160867 9.655643 0.601680
v 3.615843 9.655643 0.601680
v 2.160867 10.285666 0.237935
v 3.615843 10.285666 0.237935
v 2.160867 10.285666 -0.489553
v 3.615843 10.285666 -0.489553
vn -0.0000 -0.5000 -0.8660
vn -0.0000 -1.0000 -0.0000
vn -0.0000 -0.5000 0.8660
vn -0.0000 0.5000 0.8660
vn 1.0000 -0.0000 -0.0000
vn -0.0000 1.0000 -0.0000
vn -0.0000 0.5000 -0.8660
vn -1.0000 -0.0000 -0.0000
vt 1.000000 0.500000
vt 1.000000 1.000000
vt 0.833333 1.000000
vt 0.833333 0.500000
vt 0.666667 1.000000
vt 0.666667 0.500000
vt 0.500000 1.000000
vt 0.500000 0.500000
vt 0.333333 1.000000
vt 0.333333 0.500000
vt 0.457846 0.370000
vt 0.250000 0.490000
vt 0.042154 0.370000
vt 0.042154 0.130000
vt 0.250000 0.010000
vt 0.457846 0.130000
vt 0.166667 1.000000
vt 0.166667 0.500000
vt -0.000000 1.000000
vt -0.000000 0.500000
vt 0.750000 0.490000
vt 0.957846 0.370000
vt 0.957846 0.130000
vt 0.750000 0.010000
vt 0.542154 0.130000
vt 0.542154 0.370000
s 0
usemtl Material.004
f 77/39/37 78/40/37 80/41/37 79/42/37
f 79/42/38 80/41/38 82/43/38 81/44/38
f 81/44/39 82/43/39 84/45/39 83/46/39
f 83/46/40 84/45/40 86/47/40 85/48/40
f 80/49/41 78/50/41 88/51/41 86/52/41 84/53/41 82/54/41
f 85/48/42 86/47/42 88/55/42 87/56/42
f 87/56/43 88/55/43 78/57/43 77/58/43
f 77/59/44 79/60/44 81/61/44 83/62/44 85/63/44 87/64/44
o Cube
v 2.841635 9.066496 3.599870
v 3.058879 9.066496 3.599870
v 2.841635 13.029119 -5.724771
v 3.058879 13.029119 -5.724771
v 2.841635 6.457835 5.473154
v 3.058879 6.457835 5.473154
v 2.841635 10.602396 -4.279615
v 3.058879 10.602396 -4.279615
vn -0.0000 0.9203 0.3911
vn -0.0000 -0.5117 -0.8592
vn -0.0000 -0.9203 -0.3911
vn -0.0000 0.5833 0.8123
vn -1.0000 -0.0000 -0.0000
vn 1.0000 -0.0000 -0.0000
vt 0.375000 0.000000
vt 0.625000 0.000000
vt 0.625000 0.250000
vt 0.375000 0.250000
vt 0.625000 0.500000
vt 0.375000 0.500000
vt 0.625000 0.750000
vt 0.375000 0.750000
vt 0.625000 1.000000
vt 0.375000 1.000000
vt 0.125000 0.500000
vt 0.125000 0.750000
vt 0.875000 0.500000
vt 0.875000 0.750000
s 0
usemtl Material.003
f 89/65/45 90/66/45 92/67/45 91/68/45
f 91/68/46 92/67/46 96/69/46 95/70/46
f 95/70/47 96/69/47 94/71/47 93/72/47
f 93/72/48 94/71/48 90/73/48 89/74/48
f 91/75/49 95/70/49 93/72/49 89/76/49
f 96/69/50 92/77/50 90/78/50 94/71/50
o Cube.001
v 2.811424 6.020453 -0.817243
v 3.028668 6.020453 -0.817243
v 2.811424 15.329647 3.181536
v 3.028668 15.329647 3.181536
v 2.811424 4.157307 -3.433153
v 3.028668 4.157307 -3.433153
v 2.811424 13.893919 0.749224
v 3.028668 13.893919 0.749224
vn -0.0000 -0.3947 0.9188
vn -0.0000 0.8612 -0.5083
vn -0.0000 0.3947 -0.9188
vn -0.0000 -0.8145 0.5801
vn -1.0000 -0.0000 -0.0000
vn 1.0000 -0.0000 -0.0000
vt 0.375000 0.000000
vt 0.625000 0.000000
vt 0.625000 0.250000
vt 0.375000 0.250000
vt 0.625000 0.500000
vt 0.375000 0.500000
vt 0.625000 0.750000
vt 0.375000 0.750000
vt 0.625000 1.000000
vt 0.375000 1.000000
vt 0.125000 0.500000
vt 0.125000 0.750000
vt 0.875000 0.500000
vt 0.875000 0.750000
s 0
usemtl Material.003
f 97/79/51 98/80/51 100/81/51 99/82/51
f 99/82/52 100/81/52 104/83/52 103/84/52
f 103/84/53 104/83/53 102/85/53 101/86/53
f 101/86/54 102/85/54 98/87/54 97/88/54
f 99/89/55 103/84/55 101/86/55 97/90/55
f 104/83/56 100/91/56 98/92/56 102/85/56
