# Blender 4.0.2
# www.blender.org
mtllib park.mtl
o Plane.001
v -4.068857 -0.046457 -3.876028
v 4.701131 -0.046457 -3.876028
v -4.068857 0.520403 -3.876028
v 4.701131 0.520403 -3.876028
v -4.068856 -0.046457 4.373302
v 4.701131 -0.046457 4.373302
v -4.068856 0.520403 4.373302
v 4.701131 0.520403 4.373302
v 2.078388 -0.268707 -3.518137
v 2.078388 0.180286 -3.518137
v 2.078388 -0.268708 -1.249149
v 2.078388 0.180286 -1.249149
v 4.044526 -0.268707 -3.518137
v 4.044526 0.180286 -3.518137
v 4.044526 -0.268708 -1.249149
v 4.044526 0.180286 -1.249149
v 2.170638 0.180286 -3.411678
v 2.170638 0.180286 -1.355609
v 3.952275 0.180286 -3.411678
v 3.952275 0.180286 -1.355609
v 2.170638 0.086619 -3.411678
v 2.170638 0.086619 -1.355609
v 3.952275 0.086619 -3.411678
v 3.952275 0.086619 -1.355609
vn -0.0000 -0.0000 1.0000
vn -1.0000 -0.0000 -0.0000
vn 1.0000 -0.0000 -0.0000
vn -0.0000 -0.0000 -1.0000
vn -0.0000 1.0000 -0.0000
vn -0.0000 -1.0000 -0.0000
vt 0.000000 0.000000
vt 1.000000 0.000000
vt 1.000000 1.000000
vt 0.000000 1.000000
vt 0.375000 0.000000
vt 0.625000 0.000000
vt 0.625000 0.250000
vt 0.375000 0.250000
vt 0.625000 0.500000
vt 0.375000 0.500000
vt 0.625000 0.750000
vt 0.375000 0.750000
vt 0.625000 1.000000
vt 0.375000 1.000000
vt 0.125000 0.500000
vt 0.125000 0.750000
vt 0.875000 0.500000
vt 0.875000 0.750000
s 0
usemtl Material.006
f 1/1/1 2/2/1 4/3/1 3/4/1
f 5/1/1 6/2/1 8/3/1 7/4/1
f 4/3/2 2/2/2 6/2/2 8/3/2
f 11/15/5 15/10/5 13/12/5 9/16/5
usemtl Material.005
f 24/9/6 22/17/6 21/18/6 23/11/6
usemtl Material.004
f 9/5/3 10/6/3 12/7/3 11/8/3
f 11/8/4 12/7/4 16/9/4 15/10/4
f 15/10/2 16/9/2 14/11/2 13/12/2
f 13/12/1 14/11/1 10/13/1 9/14/1
f 16/9/6 12/7/6 18/7/6 20/9/6
f 19/11/3 20/9/3 24/9/3 23/11/3
f 14/11/6 16/9/6 20/9/6 19/11/6
f 12/7/6 10/6/6 17/6/6 18/7/6
f 10/13/6 14/11/6 19/11/6 17/13/6
f 18/7/2 17/6/2 21/6/2 22/7/2
f 17/13/4 19/11/4 23/11/4 21/13/4
f 20/9/1 18/7/1 22/7/1 24/9/1
o Cube
v -4.172941 -0.227852 1.309213
v -4.172941 0.048829 1.309213
v -4.172941 -0.227852 -0.163496
v -4.172941 0.048829 -0.163496
v 4.769226 -0.227852 1.309213
v 4.769226 0.048829 1.309213
v 4.769226 -0.227852 -0.163496
v 4.769226 0.048829 -0.163496
vn -1.0000 -0.0000 -0.0000
vn -0.0000 -0.0000 -1.0000
vn 1.0000 -0.0000 -0.0000
vn -0.0000 -0.0000 1.0000
vn -0.0000 -1.0000 -0.0000
vn -0.0000 1.0000 -0.0000
vt 0.375000 0.000000
vt 0.625000 0.000000
vt 0.625000 0.250000
vt 0.375000 0.250000
vt 0.625000 0.500000
vt 0.375000 0.500000
vt 0.625000 0.750000
vt 0.375000 0.750000
vt 0.625000 1.000000
vt 0.375000 1.000000
vt 0.125000 0.500000
vt 0.125000 0.750000
vt 0.875000 0.500000
vt 0.875000 0.750000
s 0
usemtl Material.005
f 25/19/7 26/20/7 28/21/7 27/22/7
f 27/22/8 28/21/8 32/23/8 31/24/8
f 31/24/9 32/23/9 30/25/9 29/26/9
f 29/26/10 30/25/10 26/27/10 25/28/10
f 27/29/11 31/24/11 29/26/11 25/30/11
f 32/23/12 28/31/12 26/32/12 30/25/12
o Plane.003
v -3.087814 1.391691 4.034675
v -2.045972 1.391691 4.034675
v -3.087814 1.391691 2.992833
v -2.045972 1.391691 2.992833
v -3.261681 1.597849 4.208541
v -1.872106 1.597849 4.208541
v -3.261681 1.597849 2.818966
v -1.872106 1.597849 2.818966
v -3.261681 2.131660 4.208541
v -1.872106 2.131660 4.208541
v -3.261681 2.131660 2.818966
v -1.872106 2.131660 2.818966
v -2.940868 2.564056 3.887729
v -2.192918 2.564056 3.887729
v -2.940868 2.564056 3.139779
v -2.192918 2.564056 3.139779
v -2.483388 -0.792796 3.746474
v -2.483388 1.704754 3.746474
v -2.673594 -0.792796 3.636659
v -2.673594 1.704754 3.636659
v -2.673594 -0.792796 3.417028
v -2.673594 1.704754 3.417028
v -2.483388 -0.792796 3.307213
v -2.483388 1.704754 3.307213
v -2.293182 -0.792796 3.417028
v -2.293182 1.704754 3.417028
v -2.293182 -0.792796 3.636659
v -2.293182 1.704754 3.636659
vn -0.0000 -1.0000 -0.0000
vn 1.0000 -0.0000 -0.0000
vn 0.7644 -0.6447 -0.0000
vn -0.7644 -0.6447 -0.0000
vn -0.0000 -0.6447 -0.7644
vn -0.0000 -0.6447 0.7644
vn -0.0000 0.5958 -0.8031
vn -1.0000 -0.0000 -0.0000
vn -0.0000 -0.0000 -1.0000
vn -0.0000 -0.0000 1.0000
vn -0.0000 1.0000 -0.0000
vn -0.0000 0.5958 0.8031
vn 0.8031 0.5959 -0.0000
vn -0.8031 0.5959 -0.0000
vn -0.5000 -0.0000 0.8660
vn -0.5000 -0.0000 -0.8660
vn 0.5000 -0.0000 -0.8660
vn 0.5000 -0.0000 0.8660
vt 0.000000 0.000000
vt 0.000000 1.000000
vt 1.000000 1.000000
vt 1.000000 0.000000
vt 1.000000 0.500000
vt 0.833333 1.000000
vt 0.833333 0.500000
vt 0.666667 1.000000
vt 0.666667 0.500000
vt 0.500000 1.000000
vt 0.500000 0.500000
vt 0.333333 1.000000
vt 0.333333 0.500000
vt 0.457846 0.370000
vt 0.250000 0.490000
vt 0.042154 0.370000
vt 0.042154 0.130000
vt 0.250000 0.010000
vt 0.457846 0.130000
vt 0.166667 1.000000
vt 0.166667 0.500000
vt -0.000000 1.000000
vt -0.000000 0.500000
vt 0.750000 0.490000
vt 0.957846 0.370000
vt 0.957846 0.130000
vt 0.750000 0.010000
vt 0.542154 0.130000
vt 0.542154 0.370000
s 0
usemtl Material.003
f 33/33/13 35/34/13 36/35/13 34/36/13
f 38/36/14 40/35/14 44/35/14 42/36/14
f 34/36/15 36/35/15 40/35/15 38/36/15
f 35/34/16 33/33/16 37/33/16 39/34/16
f 36/35/17 35/34/17 39/34/17 40/35/17
f 33/33/18 34/36/18 38/36/18 37/33/18
f 44/35/19 43/34/19 47/34/19 48/35/19
f 39/34/20 37/33/20 41/33/20 43/34/20
f 40/35/21 39/34/21 43/34/21 44/35/21
f 37/33/22 38/36/22 42/36/22 41/33/22
f 45/33/23 46/36/23 48/35/23 47/34/23
f 41/33/24 42/36/24 46/36/24 45/33/24
f 42/36/25 44/35/25 48/35/25 46/36/25
f 43/34/26 41/33/26 45/33/26 47/34/26
f 52/46/23 50/47/23 60/48/23 58/49/23 56/50/23 54/51/23
f 49/56/13 51/57/13 53/58/13 55/59/13 57/60/13 59/61/13
usemtl Material.004
f 49/37/27 50/35/27 52/38/27 51/39/27
f 51/39/20 52/38/20 54/40/20 53/41/20
f 53/41/28 54/40/28 56/42/28 55/43/28
f 55/43/29 56/42/29 58/44/29 57/45/29
f 57/45/14 58/44/14 60/52/14 59/53/14
f 59/53/30 60/52/30 50/54/30 49/55/30
o Plane.007
v -1.657498 -0.017208 3.269895
v 0.911807 -0.017208 4.235915
v -1.866697 -0.017208 2.021842
v -1.310017 -0.017208 1.423289
v -0.631062 -0.017208 1.769285
v 0.231983 -0.017208 1.683489
v 0.872108 -0.017208 2.536021
v 1.370307 -0.017208 3.102677
v 0.953230 -0.017208 3.841398
v -1.657498 0.068059 3.269895
v 0.911807 0.068059 4.235915
v -1.866697 0.068059 2.021842
v -1.310017 0.068059 1.423289
v -0.631062 0.068059 1.769285
v 0.231983 0.068059 1.683489
v 0.872108 0.068059 2.536021
v 1.370307 0.068059 3.102677
v 0.953230 0.068059 3.841398
vn -0.0000 1.0000 -0.0000
vn -0.0000 -1.0000 -0.0000
vn 0.0989 -0.0000 0.9951
vn 0.9862 -0.0000 -0.1653
vn -0.9945 -0.0000 -0.1044
vn -0.7997 -0.0000 0.6004
vn 0.7323 -0.0000 0.6810
vn -0.7510 -0.0000 0.6603
vn -0.4540 -0.0000 0.8910
vn 0.3519 -0.0000 -0.9360
vn -0.8708 -0.0000 -0.4916
vt 0.000000 0.000000
s 0
usemtl Material.002
f 61/62/31 62/62/31 69/62/31 68/62/31 67/62/31 66/62/31 65/62/31 64/62/31 63/62/31
f 70/62/32 72/62/32 73/62/32 74/62/32 75/62/32 76/62/32 77/62/32 78/62/32 71/62/32
f 65/62/33 66/62/33 75/62/33 74/62/33
f 61/62/34 63/62/34 72/62/34 70/62/34
f 69/62/35 62/62/35 71/62/35 78/62/35
f 66/62/36 67/62/36 76/62/36 75/62/36
f 63/62/37 64/62/37 73/62/37 72/62/37
f 67/62/38 68/62/38 77/62/38 76/62/38
f 64/62/39 65/62/39 74/62/39 73/62/39
f 62/62/40 61/62/40 70/62/40 71/62/40
f 68/62/41 69/62/41 78/62/41 77/62/41
o Plane.002
v 2.861004 0.890323 3.537535
v 3.902846 0.890323 3.537535
v 2.861004 0.890323 2.495693
v 3.902846 0.890323 2.495693
v 2.687137 1.096480 3.711402
v 4.076713 1.096480 3.711402
v 2.687137 1.096480 2.321826
v 4.076713 1.096480 2.321826
v 2.687137 1.630292 3.711402
v 4.076713 1.630292 3.711402
v 2.687137 1.630292 2.321826
v 4.076713 1.630292 2.321826
v 3.007950 2.062688 3.390589
v 3.755900 2.062688 3.390589
v 3.007950 2.062688 2.642639
v 3.755900 2.062688 2.642639
v 3.465430 -1.294165 3.249335
v 3.465430 1.203386 3.249335
v 3.275224 -1.294165 3.139519
v 3.275224 1.203386 3.139519
v 3.275224 -1.294165 2.919888
v 3.275224 1.203386 2.919888
v 3.465430 -1.294165 2.810073
v 3.465430 1.203386 2.810073
v 3.655636 -1.294165 2.919888
v 3.655636 1.203386 2.919888
v 3.655636 -1.294165 3.139519
v 3.655636 1.203386 3.139519
vn -0.0000 -1.0000 -0.0000
vn 1.0000 -0.0000 -0.0000
vn 0.7644 -0.6447 -0.0000
vn -0.7644 -0.6447 -0.0000
vn -0.0000 -0.6447 -0.7644
vn -0.0000 -0.6447 0.7644
vn -0.0000 0.5958 -0.8031
vn -1.0000 -0.0000 -0.0000
vn -0.0000 -0.0000 -1.0000
vn -0.0000 -0.0000 1.0000
vn -0.0000 1.0000 -0.0000
vn -0.0000 0.5958 0.8031
vn 0.8031 0.5959 -0.0000
vn -0.8031 0.5959 -0.0000
vn -0.5000 -0.0000 0.8660
vn -0.5000 -0.0000 -0.8660
vn 0.5000 -0.0000 -0.8660
vn 0.5000 -0.0000 0.8660
vt 0.000000 0.000000
vt 0.000000 1.000000
vt 1.000000 1.000000
vt 1.000000 0.000000
vt 1.000000 0.500000
vt 0.833333 1.000000
vt 0.833333 0.500000
vt 0.666667 1.000000
vt 0.666667 0.500000
vt 0.500000 1.000000
vt 0.500000 0.500000
vt 0.333333 1.000000
vt 0.333333 0.500000
vt 0.457846 0.370000
vt 0.250000 0.490000
vt 0.042154 0.370000
vt 0.042154 0.130000
vt 0.250000 0.010000
vt 0.457846 0.130000
vt 0.166667 1.000000
vt 0.166667 0.500000
vt -0.000000 1.000000
vt -0.000000 0.500000
vt 0.750000 0.490000
vt 0.957846 0.370000
vt 0.957846 0.130000
vt 0.750000 0.010000
vt 0.542154 0.130000
vt 0.542154 0.370000
s 0
usemtl Material.003
f 79/63/42 81/64/42 82/65/42 80/66/42
f 84/66/43 86/65/43 90/65/43 88/66/43
f 80/66/44 82/65/44 86/65/44 84/66/44
f 81/64/45 79/63/45 83/63/45 85/64/45
f 82/65/46 81/64/46 85/64/46 86/65/46
f 79/63/47 80/66/47 84/66/47 83/63/47
f 90/65/48 89/64/48 93/64/48 94/65/48
f 85/64/49 83/63/49 87/63/49 89/64/49
f 86/65/50 85/64/50 89/64/50 90/65/50
f 83/63/51 84/66/51 88/66/51 87/63/51
f 91/63/52 92/66/52 94/65/52 93/64/52
f 87/63/53 88/66/53 92/66/53 91/63/53
f 88/66/54 90/65/54 94/65/54 92/66/54
f 89/64/55 87/63/55 91/63/55 93/64/55
f 98/76/52 96/77/52 106/78/52 104/79/52 102/80/52 100/81/52
f 95/86/42 97/87/42 99/88/42 101/89/42 103/90/42 105/91/42
usemtl Material.004
f 95/67/56 96/65/56 98/68/56 97/69/56
f 97/69/49 98/68/49 100/70/49 99/71/49
f 99/71/57 100/70/57 102/72/57 101/73/57
f 101/73/58 102/72/58 104/74/58 103/75/58
f 103/75/43 104/74/43 106/82/43 105/83/43
f 105/83/59 106/82/59 96/84/59 95/85/59
o Plane.004
v 0.522707 1.161997 -2.305966
v 1.564548 1.161997 -2.305966
v 0.522707 1.161997 -3.347808
v 1.564548 1.161997 -3.347808
v 0.348840 1.368154 -2.132100
v 1.738415 1.368154 -2.132100
v 0.348840 1.368154 -3.521675
v 1.738415 1.368154 -3.521675
v 0.348840 1.901966 -2.132100
v 1.738415 1.901966 -2.132100
v 0.348840 1.901966 -3.521675
v 1.738415 1.901966 -3.521675
v 0.669652 2.334362 -2.452912
v 1.417603 2.334362 -2.452912
v 0.669652 2.334362 -3.200862
v 1.417603 2.334362 -3.200862
v 1.127133 -1.022491 -2.594167
v 1.127133 1.475060 -2.594167
v 0.936927 -1.022491 -2.703982
v 0.936927 1.475060 -2.703982
v 0.936927 -1.022491 -2.923613
v 0.936927 1.475060 -2.923613
v 1.127133 -1.022491 -3.033428
v 1.127133 1.475060 -3.033428
v 1.317339 -1.022491 -2.923613
v 1.317339 1.475060 -2.923613
v 1.317339 -1.022491 -2.703982
v 1.317339 1.475060 -2.703982
vn -0.0000 -1.0000 -0.0000
vn 1.0000 -0.0000 -0.0000
vn 0.7644 -0.6447 -0.0000
vn -0.7644 -0.6447 -0.0000
vn -0.0000 -0.6447 -0.7644
vn -0.0000 -0.6447 0.7644
vn -0.0000 0.5958 -0.8031
vn -1.0000 -0.0000 -0.0000
vn -0.0000 -0.0000 -1.0000
vn -0.0000 -0.0000 1.0000
vn -0.0000 1.0000 -0.0000
vn -0.0000 0.5958 0.8031
vn 0.8031 0.5959 -0.0000
vn -0.8031 0.5959 -0.0000
vn -0.5000 -0.0000 0.8660
vn -0.5000 -0.0000 -0.8660
vn 0.5000 -0.0000 -0.8660
vn 0.5000 -0.0000 0.8660
vt 0.000000 0.000000
vt 0.000000 1.000000
vt 1.000000 1.000000
vt 1.000000 0.000000
vt 1.000000 0.500000
vt 0.833333 1.000000
vt 0.833333 0.500000
vt 0.666667 1.000000
vt 0.666667 0.500000
vt 0.500000 1.000000
vt 0.500000 0.500000
vt 0.333333 1.000000
vt 0.333333 0.500000
vt 0.457846 0.370000
vt 0.250000 0.490000
vt 0.042154 0.370000
vt 0.042154 0.130000
vt 0.250000 0.010000
vt 0.457846 0.130000
vt 0.166667 1.000000
vt 0.166667 0.500000
vt -0.000000 1.000000
vt -0.000000 0.500000
vt 0.750000 0.490000
vt 0.957846 0.370000
vt 0.957846 0.130000
vt 0.750000 0.010000
vt 0.542154 0.130000
vt 0.542154 0.370000
s 0
usemtl Material.003
f 107/92/60 109/93/60 110/94/60 108/95/60
f 112/95/61 114/94/61 118/94/61 116/95/61
f 108/95/62 110/94/62 114/94/62 112/95/62
f 109/93/63 107/92/63 111/92/63 113/93/63
f 110/94/64 109/93/64 113/93/64 114/94/64
f 107/92/65 108/95/65 112/95/65 111/92/65
f 118/94/66 117/93/66 121/93/66 122/94/66
f 113/93/67 111/92/67 115/92/67 117/93/67
f 114/94/68 113/93/68 117/93/68 118/94/68
f 111/92/69 112/95/69 116/95/69 115/92/69
f 119/92/70 120/95/70 122/94/70 121/93/70
f 115/92/71 116/95/71 120/95/71 119/92/71
f 116/95/72 118/94/72 122/94/72 120/95/72
f 117/93/73 115/92/73 119/92/73 121/93/73
f 126/105/70 124/106/70 134/107/70 132/108/70 130/109/70 128/110/70
f 123/115/60 125/116/60 127/117/60 129/118/60 131/119/60 133/120/60
usemtl Material.004
f 123/96/74 124/94/74 126/97/74 125/98/74
f 125/98/67 126/97/67 128/99/67 127/100/67
f 127/100/75 128/99/75 130/101/75 129/102/75
f 129/102/76 130/101/76 132/103/76 131/104/76
f 131/104/61 132/103/61 134/111/61 133/112/61
f 133/112/77 134/111/77 124/113/77 123/114/77
o Plane.005
v -3.697185 1.098591 -2.822224
v -2.655343 1.098591 -2.822224
v -3.697185 1.098591 -3.864066
v -2.655343 1.098591 -3.864066
v -3.871052 1.304748 -2.648357
v -2.481476 1.304748 -2.648357
v -3.871052 1.304748 -4.037932
v -2.481476 1.304748 -4.037932
v -3.871052 1.838560 -2.648357
v -2.481476 1.838560 -2.648357
v -3.871052 1.838560 -4.037932
v -2.481476 1.838560 -4.037932
v -3.550239 2.270956 -2.969170
v -2.802289 2.270956 -2.969170
v -3.550239 2.270956 -3.717120
v -2.802289 2.270956 -3.717120
v -3.092759 -1.085897 -3.110425
v -3.092759 1.411654 -3.110425
v -3.282965 -1.085897 -3.220240
v -3.282965 1.411654 -3.220240
v -3.282965 -1.085897 -3.439871
v -3.282965 1.411654 -3.439871
v -3.092759 -1.085897 -3.549686
v -3.092759 1.411654 -3.549686
v -2.902553 -1.085897 -3.439871
v -2.902553 1.411654 -3.439871
v -2.902553 -1.085897 -3.220240
v -2.902553 1.411654 -3.220240
vn -0.0000 -1.0000 -0.0000
vn 1.0000 -0.0000 -0.0000
vn 0.7644 -0.6447 -0.0000
vn -0.7644 -0.6447 -0.0000
vn -0.0000 -0.6447 -0.7644
vn -0.0000 -0.6447 0.7644
vn -0.0000 0.5958 -0.8031
vn -1.0000 -0.0000 -0.0000
vn -0.0000 -0.0000 -1.0000
vn -0.0000 -0.0000 1.0000
vn -0.0000 1.0000 -0.0000
vn -0.0000 0.5958 0.8031
vn 0.8031 0.5959 -0.0000
vn -0.8031 0.5959 -0.0000
vn -0.5000 -0.0000 0.8660
vn -0.5000 -0.0000 -0.8660
vn 0.5000 -0.0000 -0.8660
vn 0.5000 -0.0000 0.8660
vt 0.000000 0.000000
vt 0.000000 1.000000
vt 1.000000 1.000000
vt 1.000000 0.000000
vt 1.000000 0.500000
vt 0.833333 1.000000
vt 0.833333 0.500000
vt 0.666667 1.000000
vt 0.666667 0.500000
vt 0.500000 1.000000
vt 0.500000 0.500000
vt 0.333333 1.000000
vt 0.333333 0.500000
vt 0.457846 0.370000
vt 0.250000 0.490000
vt 0.042154 0.370000
vt 0.042154 0.130000
vt 0.250000 0.010000
vt 0.457846 0.130000
vt 0.166667 1.000000
vt 0.166667 0.500000
vt -0.000000 1.000000
vt -0.000000 0.500000
vt 0.750000 0.490000
vt 0.957846 0.370000
vt 0.957846 0.130000
vt 0.750000 0.010000
vt 0.542154 0.130000
vt 0.542154 0.370000
s 0
usemtl Material.003
f 135/121/78 137/122/78 138/123/78 136/124/78
f 140/124/79 142/123/79 146/123/79 144/124/79
f 136/124/80 138/123/80 142/123/80 140/124/80
f 137/122/81 135/121/81 139/121/81 141/122/81
f 138/123/82 137/122/82 141/122/82 142/123/82
f 135/121/83 136/124/83 140/124/83 139/121/83
f 146/123/84 145/122/84 149/122/84 150/123/84
f 141/122/85 139/121/85 143/121/85 145/122/85
f 142/123/86 141/122/86 145/122/86 146/123/86
f 139/121/87 140/124/87 144/124/87 143/121/87
f 147/121/88 148/124/88 150/123/88 149/122/88
f 143/121/89 144/124/89 148/124/89 147/121/89
f 144/124/90 146/123/90 150/123/90 148/124/90
f 145/122/91 143/121/91 147/121/91 149/122/91
f 154/134/88 152/135/88 162/136/88 160/137/88 158/138/88 156/139/88
f 151/144/78 153/145/78 155/146/78 157/147/78 159/148/78 161/149/78
usemtl Material.004
f 151/125/92 152/123/92 154/126/92 153/127/92
f 153/127/85 154/126/85 156/128/85 155/129/85
f 155/129/93 156/128/93 158/130/93 157/131/93
f 157/131/94 158/130/94 160/132/94 159/133/94
f 159/133/79 160/132/79 162/140/79 161/141/79
f 161/141/95 162/140/95 152/142/95 151/143/95
o Plane.006
v -1.896211 1.086005 -0.994367
v -0.854369 1.086005 -0.994367
v -1.896211 1.086005 -2.036209
v -0.854369 1.086005 -2.036209
v -2.070077 1.292162 -0.820500
v -0.680502 1.292162 -0.820500
v -2.070077 1.292162 -2.210075
v -0.680502 1.292162 -2.210075
v -2.070077 1.825974 -0.820500
v -0.680502 1.825974 -0.820500
v -2.070077 1.825974 -2.210075
v -0.680502 1.825974 -2.210075
v -1.749265 2.258370 -1.141313
v -1.001315 2.258370 -1.141313
v -1.749265 2.258370 -1.889263
v -1.001315 2.258370 -1.889263
v -1.291785 -1.098483 -1.282567
v -1.291785 1.399068 -1.282567
v -1.481990 -1.098483 -1.392383
v -1.481990 1.399068 -1.392383
v -1.481990 -1.098483 -1.612013
v -1.481990 1.399068 -1.612013
v -1.291785 -1.098483 -1.721829
v -1.291785 1.399068 -1.721829
v -1.101579 -1.098483 -1.612013
v -1.101579 1.399068 -1.612013
v -1.101579 -1.098483 -1.392383
v -1.101579 1.399068 -1.392383
vn -0.0000 -1.0000 -0.0000
vn 1.0000 -0.0000 -0.0000
vn 0.7644 -0.6447 -0.0000
vn -0.7644 -0.6447 -0.0000
vn -0.0000 -0.6447 -0.7644
vn -0.0000 -0.6447 0.7644
vn -0.0000 0.5958 -0.8031
vn -1.0000 -0.0000 -0.0000
vn -0.0000 -0.0000 -1.0000
vn -0.0000 -0.0000 1.0000
vn -0.0000 1.0000 -0.0000
vn -0.0000 0.5958 0.8031
vn 0.8031 0.5959 -0.0000
vn -0.8031 0.5959 -0.0000
vn -0.5000 -0.0000 0.8660
vn -0.5000 -0.0000 -0.8660
vn 0.5000 -0.0000 -0.8660
vn 0.5000 -0.0000 0.8660
vt 0.000000 0.000000
vt 0.000000 1.000000
vt 1.000000 1.000000
vt 1.000000 0.000000
vt 1.000000 0.500000
vt 0.833333 1.000000
vt 0.833333 0.500000
vt 0.666667 1.000000
vt 0.666667 0.500000
vt 0.500000 1.000000
vt 0.500000 0.500000
vt 0.333333 1.000000
vt 0.333333 0.500000
vt 0.457846 0.370000
vt 0.250000 0.490000
vt 0.042154 0.370000
vt 0.042154 0.130000
vt 0.250000 0.010000
vt 0.457846 0.130000
vt 0.166667 1.000000
vt 0.166667 0.500000
vt -0.000000 1.000000
vt -0.000000 0.500000
vt 0.750000 0.490000
vt 0.957846 0.370000
vt 0.957846 0.130000
vt 0.750000 0.010000
vt 0.542154 0.130000
vt 0.542154 0.370000
s 0
usemtl Material.003
f 163/150/96 165/151/96 166/152/96 164/153/96
f 168/153/97 170/152/97 174/152/97 172/153/97
f 164/153/98 166/152/98 170/152/98 168/153/98
f 165/151/99 163/150/99 167/150/99 169/151/99
f 166/152/100 165/151/100 169/151/100 170/152/100
f 163/150/101 164/153/101 168/153/101 167/150/101
f 174/152/102 173/151/102 177/151/102 178/152/102
f 169/151/103 167/150/103 171/150/103 173/151/103
f 170/152/104 169/151/104 173/151/104 174/152/104
f 167/150/105 168/153/105 172/153/105 171/150/105
f 175/150/106 176/153/106 178/152/106 177/151/106
f 171/150/107 172/153/107 176/153/107 175/150/107
f 172/153/108 174/152/108 178/152/108 176/153/108
f 173/151/109 171/150/109 175/150/109 177/151/109
f 182/163/106 180/164/106 190/165/106 188/166/106 186/167/106 184/168/106
f 179/173/96 181/174/96 183/175/96 185/176/96 187/177/96 189/178/96
usemtl Material.004
f 179/154/110 180/152/110 182/155/110 181/156/110
f 181/156/103 182/155/103 184/157/103 183/158/103
f 183/158/111 184/157/111 186/159/111 185/160/111
f 185/160/112 186/159/112 188/161/112 187/162/112
f 187/162/97 188/161/97 190/169/97 189/170/97
f 189/170/113 190/169/113 180/171/113 179/172/113
