# Blender 3.6.2
# www.blender.org
mtllib road_tsplit.mtl
g road_tsplit_Cube.950_Maillage
v -5.000000 0.000000 5.000000
v -5.000000 0.070000 5.000000
v -5.000000 -0.000000 -5.000000
v -5.000000 0.070000 -5.000000
v 5.000000 0.000000 5.000000
v 5.000000 0.070000 5.000000
v 5.000000 -0.000000 -5.000000
v 5.000000 0.070000 -5.000000
v 4.500000 -0.000000 -5.000000
v -4.500000 -0.000000 -5.000000
v -4.500000 0.070000 -5.000000
v 4.500000 0.070000 -5.000000
v -4.500000 0.000000 5.000000
v 4.500000 0.000000 5.000000
v 4.500000 0.070000 5.000000
v -4.500000 0.070000 5.000000
v -5.000000 -0.000000 -4.500000
v -5.000000 0.000000 4.500000
v -5.000000 0.070000 4.500000
v -5.000000 0.070000 -4.500000
v 5.000000 0.000000 4.500000
v 5.000000 -0.000000 -4.500000
v 5.000000 0.070000 -4.500000
v 5.000000 0.070000 4.500000
v 4.500000 0.070000 -4.500000
v 4.500000 0.070000 4.500000
v -4.500000 0.070000 -4.500000
v -4.500000 0.070000 4.500000
v -4.500000 -0.000000 -4.500000
v -4.500000 0.000000 4.500000
v 4.500000 -0.000000 -4.500000
v 4.500000 0.000000 4.500000
v -5.000000 0.100000 -5.000000
v 5.000000 0.100000 -5.000000
v 5.000000 0.100000 5.000000
v -5.000000 0.100000 5.000000
v -4.650000 0.100000 -5.000000
v 4.650000 0.100000 -5.000000
v 4.650000 0.100000 5.000000
v -4.650000 0.100000 5.000000
v -5.000000 0.100000 4.500000
v -5.000000 0.100000 -4.500000
v 5.000000 0.100000 -4.650000
v 5.000000 0.100000 4.650000
v 4.650000 0.100000 -4.650000
v 4.650000 0.100000 4.650000
v -4.650000 0.100000 -4.500000
v -4.650000 0.100000 4.500000
v -3.100000 0.073000 -5.000000
v -2.900000 0.073000 -5.000000
v -2.900000 0.073000 5.000000
v -3.100000 0.073000 5.000000
v 4.362085 0.073000 -2.900000
v 5.000000 0.073000 -3.100000
v 5.000000 0.073000 -2.900000
v 2.900000 0.073000 -4.362085
v 3.100000 0.073000 -5.000000
v 2.900000 0.073000 -5.000000
v 3.100000 0.073000 -4.500000
v 4.500000 0.073000 -3.100000
v 3.175910 0.073000 -3.933585
v 3.468630 0.073000 -3.468630
v 3.933585 0.073000 -3.175915
v 3.802570 0.073000 -3.011295
v 3.328235 0.073000 -3.328235
v 3.011295 0.073000 -3.802570
v -0.100000 0.073000 -4.500000
v 0.100000 0.073000 -4.500000
v 0.100000 0.073000 -3.500000
v -0.100000 0.073000 -3.500000
v -0.100000 0.073000 -2.500000
v 0.100000 0.073000 -2.500000
v 0.100000 0.073000 -1.500000
v -0.100000 0.073000 -1.500000
v -0.100000 0.073000 -0.500000
v 0.100000 0.073000 -0.500000
v 0.100000 0.073000 0.500000
v -0.100000 0.073000 0.500000
v -0.100000 0.073000 1.500000
v 0.100000 0.073000 1.500000
v 0.100000 0.073000 2.500000
v -0.100000 0.073000 2.500000
v -0.100000 0.073000 3.500000
v 0.100000 0.073000 3.500000
v 0.100000 0.073000 4.500000
v -0.100000 0.073000 4.500000
v 4.500000 0.073000 -0.100000
v 4.500000 0.073000 0.100000
v 2.900000 0.073000 -3.000000
v 3.100000 0.073000 -3.000000
v 2.900000 0.073000 0.100000
v 3.100000 0.073000 -0.100000
v 2.900000 0.073000 4.362085
v 3.100000 0.073000 5.000000
v 2.900000 0.073000 5.000000
v 4.362085 0.073000 2.900000
v 5.000000 0.073000 3.100000
v 5.000000 0.073000 2.900000
v 4.500000 0.073000 3.100000
v 3.100000 0.073000 4.500000
v 3.933585 0.073000 3.175910
v 3.468630 0.073000 3.468630
v 3.175910 0.073000 3.933585
v 3.011295 0.073000 3.802570
v 3.328235 0.073000 3.328235
v 3.802570 0.073000 3.011295
v 2.900000 0.073000 0.500000
v 3.100000 0.073000 0.500000
v 3.100000 0.073000 1.000000
v 2.900000 0.073000 1.000000
v 2.900000 0.073000 1.500000
v 3.100000 0.073000 1.500000
v 3.100000 0.073000 2.000000
v 2.900000 0.073000 2.000000
v 2.900000 0.073000 3.000000
v 3.100000 0.073000 3.000000
v 3.100000 0.073000 2.500000
v 2.900000 0.073000 2.500000
vn -0.0000 1.0000 -0.0000
vn -0.0000 0.9806 0.1961
vn -1.0000 -0.0000 -0.0000
vn -0.0000 -0.0000 -1.0000
vn -0.0000 -0.0000 1.0000
vn 1.0000 -0.0000 -0.0000
vn -0.0000 -1.0000 -0.0000
vn -0.0000 0.9806 -0.1961
vn -0.1961 0.9806 -0.0000
vn 0.1961 0.9806 -0.0000
vt 0.341823 0.863281
vt 0.345504 0.863281
vt 0.345504 0.825770
vt 0.341823 0.832031
vt 0.341823 0.825770
vt 0.308694 0.825770
vt 0.308694 0.811717
vt 0.312375 0.825770
vt 0.345504 0.811717
vt 0.312375 0.832031
vt 0.308694 0.832031
vt 0.312375 0.811717
vt 0.312375 0.791153
vt 0.341823 0.780467
vt 0.341823 0.791153
vt 0.341823 0.811717
vt 0.312375 0.780467
vt 0.345504 0.780467
vt 0.345504 0.832031
vt 0.345504 0.791153
vt 0.308694 0.863281
vt 0.312375 0.863281
vt 0.466823 0.666153
vt 0.437375 0.666153
vt 0.487541 0.666153
vt 0.458736 0.666153
vt 0.216823 0.916153
vt 0.187375 0.916153
s 1
g off
g road_tsplit_Cube.950_texture_city
usemtl texture_city
f 45/1/1 34/2/1 38/1/1
s 2
f 23/3/2 45/4/2 25/5/2
s 3
f 19/6/3 1/7/3 2/6/3
s 4
f 11/8/4 3/7/4 4/6/4
s 5
f 15/5/5 5/9/5 6/3/5
f 2/6/5 40/10/5 36/11/5
s 6
f 23/3/6 7/9/6 8/3/6
s 7
f 29/12/7 3/7/7 10/12/7
s 5
f 16/8/5 1/7/5 13/12/5
f 16/13/5 14/14/5 15/15/5
s 4
f 12/5/4 7/9/4 9/16/4
f 12/15/4 10/17/4 11/13/4
s 7
f 32/14/7 22/18/7 21/18/7
f 21/9/7 14/16/7 32/16/7
s 4
f 8/3/4 38/4/4 34/19/4
s 7
f 32/14/7 13/17/7 30/17/7
f 29/17/7 9/14/7 31/14/7
f 30/12/7 17/7/7 29/12/7
f 30/12/7 1/7/7 18/7/7
s 8
f 24/3/8 46/4/8 44/19/8
s 6
f 8/3/6 43/19/6 23/3/6
s 5
f 6/3/5 39/4/5 15/5/5
s 9
f 15/5/9 46/4/9 26/5/9
s 7
f 30/17/7 31/14/7 32/14/7
s 3
f 41/11/3 20/6/3 19/6/3
s 10
f 28/13/1 15/15/1 26/15/1
f 25/15/1 11/13/1 27/13/1
s 3
f 20/6/3 33/11/3 4/6/3
s 10
f 26/15/1 23/20/1 25/15/1
s 11
f 28/8/10 40/10/10 16/8/10
s 10
f 26/15/1 27/13/1 28/13/1
s 6
f 6/3/6 44/19/6 35/19/6
s 12
f 42/21/1 37/22/1 33/21/1
s 3
f 36/11/3 19/6/3 2/6/3
s 11
f 47/10/10 28/8/10 27/8/10
s 6
f 24/20/6 22/18/6 23/20/6
f 24/3/6 5/9/6 21/9/6
s 3
f 20/6/3 18/7/3 19/6/3
f 20/6/3 3/7/3 17/7/3
s 13
f 46/1/1 35/2/1 44/2/1
s 11
f 11/8/10 47/10/10 27/8/10
s 12
f 48/22/1 42/21/1 41/21/1
f 41/21/1 40/22/1 48/22/1
s 14
f 12/5/9 45/4/9 38/4/9
s 7
f 22/9/7 9/16/7 7/9/7
s 4
f 4/6/4 37/10/4 11/8/4
s 15
f 50/23/1 52/24/1 51/23/1
s 16
f 60/23/1 55/24/1 54/23/1
f 59/23/1 58/24/1 56/24/1
f 53/24/1 63/25/1 64/26/1
f 64/26/1 62/23/1 65/23/1
f 62/23/1 66/26/1 65/23/1
f 61/25/1 56/24/1 66/26/1
s 17
f 68/27/1 70/28/1 69/27/1
s 18
f 72/27/1 74/28/1 73/27/1
s 19
f 76/27/1 78/28/1 77/27/1
s 20
f 80/27/1 82/28/1 81/27/1
s 21
f 84/27/1 86/28/1 85/27/1
s 22
f 89/28/1 92/27/1 90/27/1
f 88/27/1 92/27/1 91/28/1
s 23
f 100/23/1 95/24/1 94/23/1
f 99/23/1 98/24/1 96/24/1
f 93/24/1 103/25/1 104/26/1
f 104/26/1 102/23/1 105/23/1
f 102/23/1 106/26/1 105/23/1
f 101/25/1 96/24/1 106/26/1
s 24
f 108/27/1 110/28/1 109/27/1
s 25
f 112/27/1 114/28/1 113/27/1
s 26
f 117/27/1 115/28/1 116/27/1
s 1
f 45/1/1 43/2/1 34/2/1
s 2
f 23/3/2 43/19/2 45/4/2
s 3
f 19/6/3 18/7/3 1/7/3
s 4
f 11/8/4 10/12/4 3/7/4
s 5
f 15/5/5 14/16/5 5/9/5
f 2/6/5 16/8/5 40/10/5
s 6
f 23/3/6 22/9/6 7/9/6
s 7
f 29/12/7 17/7/7 3/7/7
s 5
f 16/8/5 2/6/5 1/7/5
f 16/13/5 13/17/5 14/14/5
s 4
f 12/5/4 8/3/4 7/9/4
f 12/15/4 9/14/4 10/17/4
s 7
f 32/14/7 31/14/7 22/18/7
f 21/9/7 5/9/7 14/16/7
s 4
f 8/3/4 12/5/4 38/4/4
s 7
f 32/14/7 14/14/7 13/17/7
f 29/17/7 10/17/7 9/14/7
f 30/12/7 18/7/7 17/7/7
f 30/12/7 13/12/7 1/7/7
s 8
f 24/3/8 26/5/8 46/4/8
s 6
f 8/3/6 34/19/6 43/19/6
s 5
f 6/3/5 35/19/5 39/4/5
s 9
f 15/5/9 39/4/9 46/4/9
s 7
f 30/17/7 29/17/7 31/14/7
s 3
f 41/11/3 42/11/3 20/6/3
s 10
f 28/13/1 16/13/1 15/15/1
f 25/15/1 12/15/1 11/13/1
s 3
f 20/6/3 42/11/3 33/11/3
s 10
f 26/15/1 24/20/1 23/20/1
s 11
f 28/8/10 48/10/10 40/10/10
s 10
f 26/15/1 25/15/1 27/13/1
s 6
f 6/3/6 24/3/6 44/19/6
s 12
f 42/21/1 47/22/1 37/22/1
s 3
f 36/11/3 41/11/3 19/6/3
s 11
f 47/10/10 48/10/10 28/8/10
s 6
f 24/20/6 21/18/6 22/18/6
f 24/3/6 6/3/6 5/9/6
s 3
f 20/6/3 17/7/3 18/7/3
f 20/6/3 4/6/3 3/7/3
s 13
f 46/1/1 39/1/1 35/2/1
s 11
f 11/8/10 37/10/10 47/10/10
s 12
f 48/22/1 47/22/1 42/21/1
f 41/21/1 36/21/1 40/22/1
s 14
f 12/5/9 25/5/9 45/4/9
s 7
f 22/9/7 31/16/7 9/16/7
s 4
f 4/6/4 33/11/4 37/10/4
s 15
f 50/23/1 49/24/1 52/24/1
s 16
f 60/23/1 53/24/1 55/24/1
f 59/23/1 57/23/1 58/24/1
f 53/24/1 60/23/1 63/25/1
f 64/26/1 63/25/1 62/23/1
f 62/23/1 61/25/1 66/26/1
f 61/25/1 59/23/1 56/24/1
s 17
f 68/27/1 67/28/1 70/28/1
s 18
f 72/27/1 71/28/1 74/28/1
s 19
f 76/27/1 75/28/1 78/28/1
s 20
f 80/27/1 79/28/1 82/28/1
s 21
f 84/27/1 83/28/1 86/28/1
s 22
f 89/28/1 91/28/1 92/27/1
f 88/27/1 87/28/1 92/27/1
s 23
f 100/23/1 93/24/1 95/24/1
f 99/23/1 97/23/1 98/24/1
f 93/24/1 100/23/1 103/25/1
f 104/26/1 103/25/1 102/23/1
f 102/23/1 101/25/1 106/26/1
f 101/25/1 99/23/1 96/24/1
s 24
f 108/27/1 107/28/1 110/28/1
s 25
f 112/27/1 111/28/1 114/28/1
s 26
f 117/27/1 118/28/1 115/28/1
