# Blender 3.6.2
# www.blender.org
mtllib rocher.mtl
g CourbeBézier_Mesh
v -1.000000 0.000000 0.000000
v -0.874711 0.000000 -0.105035
v -0.747685 0.000000 -0.173611
v -0.617188 0.000000 -0.210937
v -0.481481 0.000000 -0.222222
v -0.338831 0.000000 -0.212674
v -0.187500 0.000000 -0.187500
v -0.025752 0.000000 -0.151910
v 0.148148 0.000000 -0.111111
v 0.335937 0.000000 -0.070312
v 0.539352 0.000000 -0.034722
v 0.760127 0.000000 -0.009549
v 1.000000 0.000000 0.000000
l 1 2
l 2 3
l 3 4
l 4 5
l 5 6
l 6 7
l 7 8
l 8 9
l 9 10
l 10 11
l 11 12
l 12 13
g Cube_Maillage
v -1.225046 0.050102 0.399994
v -0.814801 0.050063 1.095836
v 0.027592 0.050063 1.383088
v 0.856798 0.050063 1.292301
v 1.259571 0.417140 0.723856
v 1.404243 0.050063 -0.072026
v 1.023669 0.070420 -0.875494
v 0.086436 0.050063 -1.242343
v -1.027554 0.050204 -0.996599
v -1.272926 0.050392 -0.128498
v -1.107180 0.880212 0.421363
v -0.763976 1.020140 1.060054
v 0.039025 0.735627 1.244212
v 0.669131 0.590210 1.094455
v 1.040233 0.773449 0.671370
v 0.960199 0.745094 -0.012348
v 0.734757 0.690175 -0.717317
v 0.086436 1.145966 -1.242343
v -0.669284 0.718589 -0.811321
v -1.075831 0.959723 -0.185840
v -0.071866 1.275777 -0.309686
v -0.501267 1.426847 -0.049219
v -0.353185 1.145966 0.443275
v 0.358746 1.647354 0.412170
v 0.626851 1.439060 0.071938
v 0.341617 1.553010 -0.238377
v -0.066108 2.348664 -0.339707
v -0.483290 2.325224 -0.063301
v -0.261430 1.775585 0.298715
v 0.456403 2.357034 0.519961
v 0.488438 2.050958 0.080316
v 0.397855 2.357037 -0.369771
v -1.987642 -0.050063 -0.280999
v -1.867331 -0.045777 -0.586591
v -0.279866 -0.050063 -1.993645
v -0.280308 0.072995 -2.006353
v -1.549727 0.052506 -0.689895
v -1.867778 0.047095 -0.587038
v -1.987642 0.050063 -0.281702
v -1.544688 0.052574 -0.694987
v -1.546496 0.052573 -0.694650
v -1.375225 0.050345 -0.395462
v 1.987642 -0.050063 -0.051119
v 2.012357 0.077903 -0.076034
v 1.623129 0.068797 -0.748604
v -0.279866 -0.050063 -1.993645
v 0.604484 -0.050063 -1.438429
v 0.643520 0.077957 -1.453074
v -0.280308 0.072995 -2.006353
v 0.686104 0.074412 -1.519407
v -1.131029 -0.045777 -1.325349
v -1.129184 0.057014 -1.333132
v -1.049854 0.058628 -1.307960
v -0.677917 -0.048059 -1.681113
v -0.279866 -0.050063 -1.993645
v -0.280308 0.072995 -2.006353
v -0.677288 0.065521 -1.691519
v -0.608882 0.066861 -1.708159
v 1.987642 -0.050063 0.267609
v 0.266803 -0.050063 1.993645
v 0.266803 0.050063 1.993645
v 2.008252 0.073279 0.267733
v -0.436102 -0.050063 1.993645
v -1.987642 -0.050063 0.437419
v -1.987642 0.050063 0.437419
v -0.436102 0.050063 1.993645
v 0.008348 1.148764 0.660665
v -0.087070 1.145966 0.603915
v -0.035257 1.776991 0.441229
v 0.165308 1.777548 0.468815
v -0.075051 2.441564 -0.303305
v -0.492233 2.418123 -0.026900
v -0.270373 1.868485 0.335117
v 0.447461 2.449934 0.556362
v 0.479495 2.143857 0.116718
v 0.388912 2.449937 -0.333369
v 0.156365 1.870447 0.505217
v -0.044200 1.869890 0.477631
vn 0.0025 0.9999 0.0157
vn -0.0327 -0.9989 0.0324
vn -0.0000 -0.0000 1.0000
vn -0.0238 0.9997 0.0002
vn -0.1410 0.9770 -0.1599
vn 0.3308 0.3752 -0.8659
vn 0.5657 0.4497 0.6912
vn -0.8563 0.1086 0.5049
vn -0.4954 -0.0000 -0.8686
vn 0.8532 0.5074 -0.1209
vn -0.2075 0.0469 0.9771
vn -0.8283 0.5089 -0.2342
vn 0.7934 0.5323 -0.2952
vn 0.2678 0.1870 0.9452
vn -0.9773 0.2104 -0.0229
vn 0.3859 0.1797 0.9048
vn 0.7562 0.1797 -0.6291
vn -0.1254 -0.3724 0.9196
vn -0.8348 0.0253 0.5500
vn -0.0610 -0.1568 -0.9857
vn 0.9698 -0.1612 0.1829
vn -0.5090 0.8565 0.0859
vn -0.5239 -0.0210 -0.8515
vn -0.0000 -1.0000 -0.0000
vn 0.0187 -0.9998 0.0052
vn -0.0232 0.9996 -0.0188
vn 0.0053 -0.9999 -0.0105
vn -0.0008 -1.0000 -0.0070
vn -0.7098 -0.0405 -0.7032
vn -0.0199 0.9998 -0.0014
vn -0.9305 -0.0026 -0.3664
vn 0.1392 -0.9870 0.0807
vn -0.0000 1.0000 -0.0000
vn -0.0192 -0.9990 0.0411
vn 0.5298 -0.0852 -0.8438
vn 0.6840 -0.2645 -0.6799
vn -0.0364 0.9991 -0.0195
vn -0.6170 -0.0484 -0.7855
vn -0.6183 -0.0829 -0.7816
vn -0.0232 -0.9995 -0.0231
vn 0.6998 -0.1176 0.7046
vn 0.9863 -0.1648 -0.0000
vn -0.7082 -0.0000 0.7060
vn -1.0000 -0.0000 -0.0000
vn -0.1300 0.3189 0.9388
vn -0.4987 0.2624 0.8261
vn 0.3020 0.7926 -0.5298
vn 0.9850 0.1362 -0.1056
vn 0.4325 -0.2925 0.8528
vn -0.9407 -0.1984 0.2753
vn -0.4962 -0.3577 0.7911
vn -0.0668 0.3584 -0.9312
vn 0.9957 0.0927 0.0080
vn -0.5434 0.2604 -0.7981
vn 0.8490 -0.4040 0.3407
vn -0.0005 1.0000 -0.0000
vn -0.0025 1.0000 0.0008
vn -0.0000 1.0000 0.0003
vn -0.0000 1.0000 0.0001
vn -0.0000 0.9999 0.0135
vn -0.0109 0.9999 0.0043
vn -0.0025 -0.9997 -0.0224
vn -0.3325 -0.9336 -0.1334
vn 0.6914 0.6688 -0.2732
vn -0.6248 0.5006 -0.5991
vn -0.2738 0.5645 -0.7787
vn 0.4932 -0.5655 -0.6610
vn 0.7953 0.4335 -0.4237
vn -0.3157 0.9310 -0.1832
vn 0.6293 -0.0000 -0.7771
vn 0.5656 0.4500 0.6910
vn -0.8848 0.0634 0.4616
vn -0.2009 0.3602 -0.9110
vn 0.8348 0.5418 -0.0981
vn -0.3167 0.1934 0.9286
vn -0.8052 0.1382 -0.5766
vn 0.8030 0.4684 -0.3685
vn 0.1010 0.3729 0.9223
vn -0.9864 0.1378 0.0894
vn 0.1693 -0.1707 0.9707
vn 0.9571 -0.1107 -0.2679
vn -0.8923 0.2205 0.3940
vn 0.1884 -0.0285 -0.9817
vn 0.8230 0.1788 0.5391
vn 0.8887 0.4418 -0.1224
vn 0.7202 -0.1711 0.6723
vn 0.2590 0.7302 0.6322
vn 0.3123 0.7408 0.5948
vn 0.2125 0.8778 0.4294
vn -0.2940 -0.7931 0.5334
vn -0.6091 0.5961 0.5231
vn -0.2991 -0.8155 0.4955
vn 0.1956 0.9272 0.3194
vn -0.2656 0.9639 0.0197
vn -0.5522 -0.0020 -0.8337
vn -0.0187 0.9998 -0.0052
vn -0.0053 0.9999 0.0105
vn 0.0008 1.0000 0.0070
vn -0.7083 -0.0068 -0.7059
vn -0.9308 -0.0062 -0.3654
vn 0.0001 1.0000 -0.0002
vn 0.0077 -0.9993 0.0357
vn -0.0030 0.9996 0.0267
vn 0.0016 1.0000 0.0054
vn -0.0105 0.9999 0.0117
vn -0.0094 0.9998 0.0156
vn 0.4988 -0.2471 -0.8307
vn 0.6789 -0.2845 -0.6769
vn -0.6191 -0.0682 -0.7823
vn -0.6163 -0.0685 -0.7845
vn -0.0232 -0.9995 -0.0232
vn 0.7082 -0.0000 0.7060
vn 0.9821 -0.1879 0.0092
vn -0.4999 0.2545 0.8279
vn -0.5168 0.2533 0.8178
vn -0.5060 0.3226 0.7999
vn -0.1362 -0.0190 0.9905
vn 0.0213 0.8287 0.5593
vn -0.5072 0.3214 0.7996
vn 0.1994 0.9042 0.3776
vt 0.617970 0.277121
vt 0.617970 0.277434
vt 0.618018 0.277323
vt 0.612799 0.413548
vt 0.575032 0.474705
vt 0.582585 0.498732
vt 0.625000 0.858221
vt 0.375000 0.902426
vt 0.375000 0.858221
vt 0.625000 0.621200
vt 0.648970 0.578714
vt 0.696117 0.706026
vt 0.744564 0.547106
vt 0.753976 0.604153
vt 0.709777 0.625854
vt 0.686426 0.570489
vt 0.668825 0.679576
vt 0.801242 0.693708
vt 0.826837 0.649926
vt 0.814222 0.562949
vt 0.661689 0.620484
vt 0.748265 0.711719
vt 0.828348 0.615663
vt 0.721297 0.657601
vt 0.739823 0.663428
vt 0.749489 0.666468
vt 0.724979 0.601816
vt 0.756163 0.662452
vt 0.781080 0.620493
vt 0.772211 0.652793
vt 0.125000 0.607382
vt 0.232400 0.500000
vt 0.288015 0.534812
vt 0.614843 0.261576
vt 0.625000 0.193700
vt 0.625000 0.193070
vt 0.614320 0.169226
vt 0.625000 0.154213
vt 0.620547 0.196020
vt 0.835025 0.599108
vt 0.837095 0.585076
vt 0.836900 0.584783
vt 0.875000 0.607337
vt 0.844388 0.589473
vt 0.844270 0.589448
vt 0.384715 0.261934
vt 0.614843 0.261576
vt 0.613225 0.343770
vt 0.603206 0.329730
vt 0.615695 0.344836
vt 0.625000 0.142662
vt 0.385233 0.169328
vt 0.375000 0.142618
vt 0.768908 0.500000
vt 0.375000 0.357400
vt 0.625000 0.356092
vt 0.625000 0.379151
vt 0.618192 0.379126
vt 0.375000 0.447827
vt 0.375000 0.621795
vt 0.625000 0.448775
vt 0.625000 0.344643
vt 0.621923 0.310610
vt 0.620545 0.195390
vt 0.379543 0.312755
vt 0.620250 0.311891
vt 0.620915 0.318074
vt 0.375000 0.345787
vt 0.375000 0.154213
vt 0.379543 0.306573
vt 0.375000 0.641779
vt 0.625000 0.642593
vt 0.625000 0.000000
vt 0.375000 0.097574
vt 0.375000 0.000000
vt 0.625000 0.097574
vt 0.755476 0.662865
vt 0.605587 0.416274
vt 0.625000 0.902426
vt 0.875000 0.652426
vt 0.777426 0.750000
vt 0.733221 0.750000
vt 0.835025 0.599108
vt 0.625000 0.642593
vt 0.749406 0.666573
vt 0.755476 0.662865
vt 0.266779 0.750000
vt 0.222574 0.750000
vt 0.125000 0.652426
vt 0.619940 0.263818
vt 0.599822 0.329744
vt 0.708211 0.530580
vt 0.617792 0.264936
vt 0.756162 0.662452
vt 0.743712 0.669988
s 0
g off
g Cube_Rocher
usemtl Rocher
f 50/1/1 53/2/1 54/3/1
f 61/4/2 58/5/2 57/6/2
f 74/7/3 76/8/3 73/9/3
f 57/10/4 58/11/4 17/12/4
f 31/13/5 34/14/5 38/15/5
f 21/13/6 30/16/6 20/16/6
f 18/17/7 27/12/7 17/12/7
f 15/18/8 24/19/8 14/19/8
f 21/13/9 32/20/9 31/13/9
f 18/17/10 29/21/10 28/17/10
f 15/18/11 26/22/11 25/18/11
f 23/23/12 32/20/12 22/20/12
f 19/21/13 30/16/13 29/21/13
f 16/22/14 27/12/14 26/22/14
f 23/23/15 24/19/15 33/23/15
f 37/24/16 83/25/16 80/26/16
f 39/27/17 44/15/17 38/15/17
f 83/25/18 91/28/18 82/28/18
f 35/29/19 42/30/19 41/29/19
f 39/27/20 40/14/20 45/27/20
f 37/24/21 44/15/21 43/24/21
f 33/23/22 24/19/22 25/18/22
f 35/29/23 40/14/23 34/14/23
f 46/31/24 59/32/24 60/33/24
f 65/34/25 53/35/25 50/36/25
f 51/37/26 52/38/26 53/39/26
f 55/40/27 50/41/27 54/42/27
f 52/43/28 54/44/28 53/45/28
f 64/46/29 51/37/29 65/47/29
f 70/48/30 66/49/30 71/50/30
f 52/51/31 47/52/31 46/53/31
f 55/40/32 22/20/32 62/54/32
f 48/55/33 62/56/33 59/55/33
f 61/57/34 62/56/34 63/58/34
f 62/56/35 60/59/35 59/55/35
f 56/60/36 61/61/36 57/10/36
f 49/62/37 71/63/37 50/64/37
f 49/56/33 68/55/33 69/56/33
f 65/47/38 67/65/38 64/46/38
f 69/56/30 70/66/30 71/67/30
f 68/55/39 70/66/39 69/56/39
f 48/68/40 46/69/40 67/70/40
f 74/7/41 72/71/41 75/72/41
f 56/60/42 75/72/42 72/71/42
f 79/73/43 77/74/43 76/75/43
f 78/76/44 46/53/44 77/74/44
f 82/28/45 80/26/45 83/25/45
f 81/77/46 42/30/46 36/30/46
f 87/24/47 88/15/47 85/29/47
f 45/27/48 88/15/48 44/15/48
f 43/24/49 90/25/49 83/25/49
f 41/29/50 86/30/50 85/29/50
f 82/28/51 86/30/51 42/30/51
f 45/27/52 84/14/52 89/27/52
f 43/24/53 88/15/53 87/24/53
f 40/14/54 85/29/54 84/14/54
f 61/4/2 63/78/2 58/5/2
f 74/7/3 79/79/3 76/8/3
f 19/21/55 18/17/55 17/12/55
f 78/80/33 79/81/33 74/82/33
f 55/83/56 52/43/56 78/80/56
f 14/19/57 23/23/57 55/83/57
f 14/19/58 55/83/58 78/80/58
f 15/18/59 14/19/59 78/80/59
f 15/18/33 78/80/33 74/82/33
f 16/22/33 15/18/33 74/82/33
f 74/82/60 75/84/60 57/10/60
f 16/22/61 74/82/61 57/10/61
f 17/12/62 16/22/62 57/10/62
f 58/11/63 19/21/63 17/12/63
f 29/21/64 30/16/64 31/13/64
f 31/13/65 32/20/65 33/23/65
f 33/23/66 35/29/66 34/14/66
f 34/14/67 39/27/67 38/15/67
f 38/15/68 29/21/68 31/13/68
f 31/13/69 33/23/69 34/14/69
f 21/13/70 31/13/70 30/16/70
f 18/17/71 28/17/71 27/12/71
f 15/18/72 25/18/72 24/19/72
f 21/13/73 22/20/73 32/20/73
f 18/17/74 19/21/74 29/21/74
f 15/18/75 16/22/75 26/22/75
f 23/23/76 33/23/76 32/20/76
f 19/21/77 20/16/77 30/16/77
f 16/22/78 17/12/78 27/12/78
f 23/23/79 14/19/79 24/19/79
f 37/24/80 43/24/80 83/25/80
f 39/27/81 45/27/81 44/15/81
f 83/25/18 90/25/18 91/28/18
f 35/29/82 36/30/82 42/30/82
f 39/27/83 34/14/83 40/14/83
f 37/24/84 38/15/84 44/15/84
f 28/17/85 29/21/85 38/15/85
f 38/15/86 37/24/86 80/85/86
f 28/17/87 38/15/87 80/85/87
f 26/22/88 27/12/88 28/17/88
f 25/18/89 26/22/89 28/17/89
f 28/17/90 80/85/90 81/86/90
f 36/30/91 35/29/91 33/23/91
f 28/17/92 81/86/92 36/30/92
f 25/18/93 28/17/93 36/30/93
f 25/18/94 36/30/94 33/23/94
f 35/29/95 41/29/95 40/14/95
f 60/33/24 56/60/24 72/71/24
f 72/71/24 73/87/24 76/88/24
f 76/88/24 77/89/24 46/31/24
f 72/71/24 76/88/24 46/31/24
f 60/33/24 72/71/24 46/31/24
f 46/31/33 48/32/33 59/32/33
f 50/36/96 66/90/96 65/34/96
f 65/34/96 51/37/96 53/35/96
f 55/40/97 49/54/97 50/41/97
f 52/43/98 55/83/98 54/44/98
f 64/46/99 47/52/99 51/37/99
f 70/48/30 65/91/30 66/49/30
f 52/51/100 51/37/100 47/52/100
f 55/40/101 23/23/101 22/20/101
f 22/20/102 21/13/102 20/16/102
f 20/16/103 19/21/103 58/11/103
f 20/16/104 58/11/104 63/92/104
f 22/20/105 20/16/105 63/92/105
f 62/54/33 49/54/33 55/40/33
f 22/20/106 63/92/106 62/54/106
f 48/55/33 49/56/33 62/56/33
f 62/56/107 61/61/107 60/59/107
f 56/60/108 60/59/108 61/61/108
f 71/63/37 66/93/37 50/64/37
f 49/62/33 69/62/33 71/63/33
f 49/56/33 48/55/33 68/55/33
f 65/47/109 70/66/109 67/65/109
f 68/55/110 67/65/110 70/66/110
f 46/69/111 47/52/111 64/46/111
f 46/69/40 64/46/40 67/70/40
f 67/70/33 68/68/33 48/68/33
f 74/7/112 73/9/112 72/71/112
f 56/60/113 57/10/113 75/72/113
f 79/73/43 78/76/43 77/74/43
f 78/76/44 52/51/44 46/53/44
f 82/28/114 81/77/114 80/26/114
f 81/77/115 82/28/115 42/30/115
f 85/29/116 86/30/116 91/94/116
f 91/94/117 90/95/117 87/24/117
f 88/15/118 89/27/118 84/14/118
f 85/29/119 91/94/119 87/24/119
f 88/15/120 84/14/120 85/29/120
f 45/27/48 89/27/48 88/15/48
f 43/24/49 87/24/49 90/25/49
f 41/29/50 42/30/50 86/30/50
f 82/28/51 91/28/51 86/30/51
f 45/27/52 40/14/52 84/14/52
f 43/24/53 44/15/53 88/15/53
f 40/14/54 41/29/54 85/29/54
